<svg width="428" height="131" viewBox="0 0 428 131" fill="none" xmlns="http://www.w3.org/2000/svg">
<path d="M52.8781 85V15.1818H81.9918C87.219 15.1818 91.594 15.9205 95.1168 17.3977C98.6622 18.875 101.321 20.9432 103.094 23.6023C104.889 26.2614 105.787 29.3409 105.787 32.8409C105.787 35.5 105.23 37.875 104.117 39.9659C103.003 42.0341 101.469 43.75 99.5145 45.1136C97.5599 46.4773 95.2986 47.4318 92.7304 47.9773V48.6591C95.5486 48.7955 98.1509 49.5568 100.537 50.9432C102.946 52.3295 104.878 54.2614 106.333 56.7386C107.787 59.1932 108.514 62.1023 108.514 65.4659C108.514 69.2159 107.56 72.5682 105.651 75.5227C103.742 78.4545 100.98 80.7727 97.3668 82.4773C93.7531 84.1591 89.3668 85 84.2077 85H52.8781ZM69.7531 71.3977H80.185C83.844 71.3977 86.5372 70.7045 88.2645 69.3182C90.0145 67.9318 90.8895 66 90.8895 63.5227C90.8895 61.7273 90.469 60.1818 89.6281 58.8864C88.7872 57.5682 87.594 56.5568 86.0486 55.8523C84.5031 55.125 82.6509 54.7614 80.4918 54.7614H69.7531V71.3977ZM69.7531 43.8864H79.094C80.9349 43.8864 82.5713 43.5795 84.0031 42.9659C85.4349 42.3523 86.5486 41.4659 87.344 40.3068C88.1622 39.1477 88.5713 37.75 88.5713 36.1136C88.5713 33.7727 87.7418 31.9318 86.0827 30.5909C84.4236 29.25 82.1849 28.5795 79.3668 28.5795H69.7531V43.8864ZM116.628 15.1818H133.469V55.4091H134.049L161.526 15.1818H176.049V85H159.174V44.7045H158.73L130.912 85H116.628V15.1818ZM213.08 85.9545C207.762 85.9545 203.046 85.0455 198.932 83.2273C194.841 81.3864 191.614 78.8523 189.25 75.625C186.887 72.3977 185.682 68.6818 185.637 64.4773H202.614C202.682 66 203.171 67.3523 204.08 68.5341C204.989 69.6932 206.228 70.6023 207.796 71.2614C209.364 71.9205 211.148 72.25 213.148 72.25C215.148 72.25 216.909 71.8977 218.432 71.1932C219.978 70.4659 221.182 69.4773 222.046 68.2273C222.909 66.9545 223.33 65.5 223.307 63.8636C223.33 62.2273 222.864 60.7727 221.909 59.5C220.955 58.2273 219.603 57.2386 217.853 56.5341C216.125 55.8295 214.08 55.4773 211.716 55.4773H204.932V43.4773H211.716C213.784 43.4773 215.603 43.1364 217.171 42.4545C218.762 41.7727 220 40.8182 220.887 39.5909C221.773 38.3409 222.205 36.9091 222.182 35.2955C222.205 33.7273 221.83 32.3523 221.057 31.1705C220.307 29.9659 219.25 29.0341 217.887 28.375C216.546 27.7159 214.989 27.3864 213.216 27.3864C211.353 27.3864 209.659 27.7159 208.137 28.375C206.637 29.0341 205.443 29.9659 204.557 31.1705C203.671 32.375 203.205 33.7727 203.159 35.3636H187.034C187.08 31.2045 188.239 27.5455 190.512 24.3864C192.784 21.2045 195.875 18.7159 199.784 16.9205C203.716 15.125 208.193 14.2273 213.216 14.2273C218.216 14.2273 222.614 15.1023 226.409 16.8523C230.205 18.6023 233.159 20.9886 235.273 24.0114C237.387 27.0114 238.443 30.4091 238.443 34.2045C238.466 38.1364 237.182 41.375 234.591 43.9205C232.023 46.4659 228.716 48.0341 224.671 48.625V49.1705C230.08 49.8068 234.159 51.5568 236.909 54.4205C239.682 57.2841 241.057 60.8636 241.034 65.1591C241.034 69.2045 239.841 72.7955 237.455 75.9318C235.091 79.0455 231.796 81.5 227.568 83.2955C223.364 85.0682 218.534 85.9545 213.08 85.9545ZM250.691 15.1818H267.532V55.4091H268.111L295.588 15.1818H310.111V85H293.236V44.7045H292.793L264.975 85H250.691V15.1818ZM318.438 28.8864V15.1818H377.449V28.8864H356.279V85H339.642V28.8864H318.438Z" fill="#3C3A45"/>
<path d="M14.363 113.362H11.7067C11.631 112.927 11.4913 112.541 11.2877 112.205C11.0841 111.864 10.8308 111.575 10.5277 111.338C10.2247 111.101 9.87907 110.924 9.49081 110.805C9.10729 110.682 8.69299 110.621 8.24791 110.621C7.45719 110.621 6.75644 110.82 6.14564 111.217C5.53485 111.61 5.05663 112.188 4.71098 112.95C4.36534 113.708 4.19252 114.634 4.19252 115.727C4.19252 116.84 4.36534 117.777 4.71098 118.54C5.06136 119.297 5.53958 119.87 6.14564 120.259C6.75644 120.642 7.45483 120.834 8.24081 120.834C8.67642 120.834 9.08361 120.777 9.4624 120.663C9.84593 120.545 10.1892 120.372 10.4922 120.145C10.8 119.918 11.058 119.638 11.2664 119.307C11.4794 118.975 11.6262 118.597 11.7067 118.17L14.363 118.185C14.2635 118.876 14.0481 119.525 13.7167 120.131C13.39 120.737 12.9615 121.272 12.4312 121.736C11.9008 122.195 11.2806 122.555 10.5704 122.815C9.86013 123.071 9.07178 123.199 8.2053 123.199C6.92689 123.199 5.78579 122.903 4.782 122.311C3.77822 121.719 2.9875 120.865 2.40985 119.747C1.83219 118.63 1.54337 117.29 1.54337 115.727C1.54337 114.16 1.83456 112.82 2.41695 111.707C2.99933 110.59 3.79242 109.735 4.79621 109.143C5.8 108.552 6.93636 108.256 8.2053 108.256C9.01496 108.256 9.7678 108.369 10.4638 108.597C11.1598 108.824 11.7801 109.158 12.3246 109.598C12.8691 110.034 13.3166 110.569 13.6669 111.203C14.0221 111.833 14.2541 112.553 14.363 113.362ZM16.0657 114.2V112.091H25.6112V114.2H22.0814V123H19.5956V114.2H16.0657ZM27.6584 127.091V112.091H30.1868V113.895H30.336C30.4686 113.63 30.6556 113.348 30.8971 113.05C31.1385 112.747 31.4652 112.489 31.8772 112.276C32.2891 112.058 32.8147 111.949 33.4539 111.949C34.2967 111.949 35.0566 112.164 35.7337 112.595C36.4155 113.021 36.9553 113.653 37.353 114.491C37.7555 115.325 37.9567 116.348 37.9567 117.56C37.9567 118.758 37.7602 119.776 37.3672 120.614C36.9742 121.452 36.4392 122.091 35.7621 122.531C35.085 122.972 34.318 123.192 33.461 123.192C32.836 123.192 32.3175 123.088 31.9056 122.879C31.4937 122.671 31.1622 122.42 30.9113 122.126C30.6651 121.828 30.4733 121.546 30.336 121.281H30.2294V127.091H27.6584ZM30.1797 117.545C30.1797 118.251 30.2792 118.869 30.478 119.399C30.6816 119.929 30.9728 120.344 31.3516 120.642C31.7351 120.936 32.1991 121.082 32.7437 121.082C33.3118 121.082 33.7877 120.931 34.1712 120.628C34.5547 120.32 34.8436 119.901 35.0377 119.371C35.2366 118.836 35.336 118.227 35.336 117.545C35.336 116.868 35.2389 116.267 35.0448 115.741C34.8507 115.216 34.5618 114.804 34.1783 114.506C33.7948 114.207 33.3166 114.058 32.7437 114.058C32.1944 114.058 31.728 114.203 31.3445 114.491C30.961 114.78 30.6698 115.185 30.4709 115.706C30.2768 116.227 30.1797 116.84 30.1797 117.545ZM44.9169 123.213C43.8516 123.213 42.9283 122.979 42.1471 122.51C41.3658 122.041 40.7598 121.385 40.3289 120.543C39.9027 119.7 39.6897 118.715 39.6897 117.588C39.6897 116.461 39.9027 115.474 40.3289 114.626C40.7598 113.779 41.3658 113.121 42.1471 112.652C42.9283 112.183 43.8516 111.949 44.9169 111.949C45.9823 111.949 46.9056 112.183 47.6868 112.652C48.4681 113.121 49.0718 113.779 49.4979 114.626C49.9288 115.474 50.1442 116.461 50.1442 117.588C50.1442 118.715 49.9288 119.7 49.4979 120.543C49.0718 121.385 48.4681 122.041 47.6868 122.51C46.9056 122.979 45.9823 123.213 44.9169 123.213ZM44.9312 121.153C45.5088 121.153 45.9918 120.995 46.38 120.678C46.7683 120.356 47.0571 119.925 47.2465 119.385C47.4406 118.845 47.5377 118.244 47.5377 117.581C47.5377 116.913 47.4406 116.31 47.2465 115.77C47.0571 115.225 46.7683 114.792 46.38 114.47C45.9918 114.148 45.5088 113.987 44.9312 113.987C44.3393 113.987 43.8469 114.148 43.4539 114.47C43.0656 114.792 42.7744 115.225 42.5803 115.77C42.3909 116.31 42.2962 116.913 42.2962 117.581C42.2962 118.244 42.3909 118.845 42.5803 119.385C42.7744 119.925 43.0656 120.356 43.4539 120.678C43.8469 120.995 44.3393 121.153 44.9312 121.153ZM54.8051 119.52L59.173 112.091H61.815V123H59.3292V115.564L54.9755 123H52.3264V112.091H54.8051V119.52ZM63.2337 114.2V112.091H72.7792V114.2H69.2493V123H66.7635V114.2H63.2337ZM79.2067 123.213C78.113 123.213 77.1684 122.986 76.3729 122.531C75.5822 122.072 74.9738 121.423 74.5476 120.585C74.1215 119.742 73.9084 118.75 73.9084 117.609C73.9084 116.487 74.1215 115.502 74.5476 114.655C74.9785 113.803 75.5798 113.14 76.3516 112.666C77.1234 112.188 78.0301 111.949 79.0718 111.949C79.7441 111.949 80.3786 112.058 80.9752 112.276C81.5765 112.489 82.1068 112.82 82.5661 113.27C83.0301 113.72 83.3947 114.293 83.6598 114.989C83.925 115.68 84.0576 116.504 84.0576 117.46V118.249H75.1158V116.516H81.5931C81.5883 116.023 81.4818 115.585 81.2735 115.202C81.0651 114.813 80.774 114.508 80.3999 114.286C80.0306 114.063 79.5997 113.952 79.1073 113.952C78.5817 113.952 78.1201 114.08 77.7223 114.335C77.3246 114.586 77.0145 114.918 76.7919 115.33C76.5741 115.737 76.4629 116.184 76.4581 116.672V118.185C76.4581 118.819 76.5741 119.364 76.8062 119.818C77.0382 120.268 77.3625 120.614 77.7792 120.855C78.1958 121.092 78.6835 121.21 79.2422 121.21C79.6163 121.21 79.9548 121.158 80.2579 121.054C80.5609 120.945 80.8237 120.786 81.0462 120.578C81.2687 120.37 81.4368 120.112 81.5505 119.804L83.951 120.074C83.7995 120.708 83.5107 121.262 83.0846 121.736C82.6632 122.205 82.1234 122.569 81.4652 122.83C80.8071 123.085 80.0543 123.213 79.2067 123.213ZM85.4798 123L85.4656 120.884H85.842C86.1261 120.884 86.3652 120.82 86.5593 120.692C86.7535 120.564 86.9145 120.351 87.0423 120.053C87.1701 119.75 87.2696 119.342 87.3406 118.831C87.4116 118.32 87.4613 117.683 87.4897 116.92L87.6815 112.091H95.6361V123H93.1503V114.2H90.0182L89.8477 117.716C89.8051 118.625 89.7033 119.413 89.5423 120.081C89.3861 120.744 89.1635 121.291 88.8747 121.722C88.5906 122.152 88.2331 122.474 87.8022 122.688C87.3714 122.896 86.8624 123 86.2753 123H85.4798ZM99.9649 115.642H103.182C104.574 115.642 105.651 115.981 106.414 116.658C107.176 117.335 107.56 118.223 107.564 119.321C107.56 120.036 107.384 120.67 107.039 121.224C106.698 121.778 106.201 122.214 105.547 122.531C104.899 122.844 104.11 123 103.182 123H98.2248V112.091H100.704V120.891H103.182C103.741 120.891 104.2 120.749 104.56 120.464C104.92 120.176 105.1 119.806 105.1 119.357C105.1 118.883 104.92 118.497 104.56 118.199C104.2 117.901 103.741 117.751 103.182 117.751H99.9649V115.642ZM117.261 116.48V118.589H111.451V116.48H117.261ZM112.246 112.091V123H109.768V112.091H112.246ZM118.944 112.091V123H116.472V112.091H118.944ZM123.285 115.642H126.503C127.895 115.642 128.972 115.981 129.734 116.658C130.496 117.335 130.88 118.223 130.885 119.321C130.88 120.036 130.705 120.67 130.359 121.224C130.018 121.778 129.521 122.214 128.868 122.531C128.219 122.844 127.431 123 126.503 123H121.545V112.091H124.024V120.891H126.503C127.061 120.891 127.521 120.749 127.88 120.464C128.24 120.176 128.42 119.806 128.42 119.357C128.42 118.883 128.24 118.497 127.88 118.199C127.521 117.901 127.061 117.751 126.503 117.751H123.285V115.642ZM132.241 123V112.091H134.812V123H132.241ZM142.293 123.213C141.199 123.213 140.254 122.986 139.459 122.531C138.668 122.072 138.06 121.423 137.634 120.585C137.207 119.742 136.994 118.75 136.994 117.609C136.994 116.487 137.207 115.502 137.634 114.655C138.064 113.803 138.666 113.14 139.438 112.666C140.209 112.188 141.116 111.949 142.158 111.949C142.83 111.949 143.465 112.058 144.061 112.276C144.662 112.489 145.193 112.82 145.652 113.27C146.116 113.72 146.481 114.293 146.746 114.989C147.011 115.68 147.144 116.504 147.144 117.46V118.249H138.202V116.516H144.679C144.674 116.023 144.568 115.585 144.359 115.202C144.151 114.813 143.86 114.508 143.486 114.286C143.117 114.063 142.686 113.952 142.193 113.952C141.668 113.952 141.206 114.08 140.808 114.335C140.411 114.586 140.1 114.918 139.878 115.33C139.66 115.737 139.549 116.184 139.544 116.672V118.185C139.544 118.819 139.66 119.364 139.892 119.818C140.124 120.268 140.448 120.614 140.865 120.855C141.282 121.092 141.769 121.21 142.328 121.21C142.702 121.21 143.041 121.158 143.344 121.054C143.647 120.945 143.91 120.786 144.132 120.578C144.355 120.37 144.523 120.112 144.636 119.804L147.037 120.074C146.885 120.708 146.597 121.262 146.17 121.736C145.749 122.205 145.209 122.569 144.551 122.83C143.893 123.085 143.14 123.213 142.293 123.213ZM167.39 115.727C167.39 117.295 167.097 118.637 166.51 119.754C165.927 120.867 165.132 121.719 164.123 122.311C163.119 122.903 161.981 123.199 160.707 123.199C159.433 123.199 158.292 122.903 157.284 122.311C156.28 121.714 155.485 120.86 154.897 119.747C154.315 118.63 154.024 117.29 154.024 115.727C154.024 114.16 154.315 112.82 154.897 111.707C155.485 110.59 156.28 109.735 157.284 109.143C158.292 108.552 159.433 108.256 160.707 108.256C161.981 108.256 163.119 108.552 164.123 109.143C165.132 109.735 165.927 110.59 166.51 111.707C167.097 112.82 167.39 114.16 167.39 115.727ZM164.741 115.727C164.741 114.624 164.568 113.694 164.223 112.936C163.882 112.174 163.408 111.598 162.802 111.21C162.196 110.817 161.498 110.621 160.707 110.621C159.916 110.621 159.218 110.817 158.612 111.21C158.006 111.598 157.53 112.174 157.184 112.936C156.843 113.694 156.673 114.624 156.673 115.727C156.673 116.83 156.843 117.763 157.184 118.526C157.53 119.283 158.006 119.858 158.612 120.251C159.218 120.64 159.916 120.834 160.707 120.834C161.498 120.834 162.196 120.64 162.802 120.251C163.408 119.858 163.882 119.283 164.223 118.526C164.568 117.763 164.741 116.83 164.741 115.727ZM169.171 114.2V112.091H178.717V114.2H175.187V123H172.701V114.2H169.171ZM178.9 126.168V120.884H179.766C179.998 120.704 180.192 120.46 180.348 120.152C180.505 119.839 180.633 119.473 180.732 119.051C180.836 118.625 180.921 118.149 180.988 117.624C181.054 117.093 181.113 116.523 181.165 115.912L181.478 112.091H189.361V120.884H191.052V126.168H188.566V123H181.428V126.168H178.9ZM182.408 120.884H186.904V114.165H183.708L183.537 115.912C183.443 117.067 183.317 118.057 183.161 118.881C183.005 119.705 182.754 120.372 182.408 120.884ZM197.8 123.213C196.707 123.213 195.762 122.986 194.967 122.531C194.176 122.072 193.568 121.423 193.141 120.585C192.715 119.742 192.502 118.75 192.502 117.609C192.502 116.487 192.715 115.502 193.141 114.655C193.572 113.803 194.174 113.14 194.945 112.666C195.717 112.188 196.624 111.949 197.666 111.949C198.338 111.949 198.972 112.058 199.569 112.276C200.17 112.489 200.701 112.82 201.16 113.27C201.624 113.72 201.988 114.293 202.254 114.989C202.519 115.68 202.651 116.504 202.651 117.46V118.249H193.71V116.516H200.187C200.182 116.023 200.076 115.585 199.867 115.202C199.659 114.813 199.368 114.508 198.994 114.286C198.624 114.063 198.193 113.952 197.701 113.952C197.175 113.952 196.714 114.08 196.316 114.335C195.918 114.586 195.608 114.918 195.386 115.33C195.168 115.737 195.057 116.184 195.052 116.672V118.185C195.052 118.819 195.168 119.364 195.4 119.818C195.632 120.268 195.956 120.614 196.373 120.855C196.79 121.092 197.277 121.21 197.836 121.21C198.21 121.21 198.549 121.158 198.852 121.054C199.155 120.945 199.417 120.786 199.64 120.578C199.862 120.37 200.031 120.112 200.144 119.804L202.545 120.074C202.393 120.708 202.104 121.262 201.678 121.736C201.257 122.205 200.717 122.569 200.059 122.83C199.401 123.085 198.648 123.213 197.8 123.213ZM204.074 123L204.059 120.884H204.436C204.72 120.884 204.959 120.82 205.153 120.692C205.347 120.564 205.508 120.351 205.636 120.053C205.764 119.75 205.863 119.342 205.934 118.831C206.005 118.32 206.055 117.683 206.083 116.92L206.275 112.091H214.23V123H211.744V114.2H208.612L208.441 117.716C208.399 118.625 208.297 119.413 208.136 120.081C207.98 120.744 207.757 121.291 207.468 121.722C207.184 122.152 206.827 122.474 206.396 122.688C205.965 122.896 205.456 123 204.869 123H204.074ZM221.577 123.213C220.512 123.213 219.588 122.979 218.807 122.51C218.026 122.041 217.42 121.385 216.989 120.543C216.563 119.7 216.35 118.715 216.35 117.588C216.35 116.461 216.563 115.474 216.989 114.626C217.42 113.779 218.026 113.121 218.807 112.652C219.588 112.183 220.512 111.949 221.577 111.949C222.642 111.949 223.566 112.183 224.347 112.652C225.128 113.121 225.732 113.779 226.158 114.626C226.589 115.474 226.804 116.461 226.804 117.588C226.804 118.715 226.589 119.7 226.158 120.543C225.732 121.385 225.128 122.041 224.347 122.51C223.566 122.979 222.642 123.213 221.577 123.213ZM221.591 121.153C222.169 121.153 222.652 120.995 223.04 120.678C223.428 120.356 223.717 119.925 223.907 119.385C224.101 118.845 224.198 118.244 224.198 117.581C224.198 116.913 224.101 116.31 223.907 115.77C223.717 115.225 223.428 114.792 223.04 114.47C222.652 114.148 222.169 113.987 221.591 113.987C220.999 113.987 220.507 114.148 220.114 114.47C219.726 114.792 219.435 115.225 219.24 115.77C219.051 116.31 218.956 116.913 218.956 117.581C218.956 118.244 219.051 118.845 219.24 119.385C219.435 119.925 219.726 120.356 220.114 120.678C220.507 120.995 220.999 121.153 221.591 121.153ZM238.099 112.091V123H235.627V112.091H238.099ZM236.941 117.02V119.122C236.662 119.245 236.345 119.357 235.989 119.456C235.639 119.551 235.267 119.626 234.874 119.683C234.486 119.74 234.098 119.768 233.71 119.768C232.251 119.768 231.098 119.442 230.251 118.788C229.408 118.13 228.987 117.105 228.987 115.713V112.077H231.444V115.713C231.444 116.182 231.527 116.558 231.693 116.842C231.858 117.126 232.109 117.335 232.445 117.467C232.782 117.595 233.203 117.659 233.71 117.659C234.278 117.659 234.818 117.602 235.329 117.489C235.84 117.375 236.378 117.219 236.941 117.02ZM248.179 116.48V118.589H242.369V116.48H248.179ZM243.164 112.091V123H240.686V112.091H243.164ZM249.862 112.091V123H247.39V112.091H249.862ZM254.203 115.642H257.42C258.813 115.642 259.89 115.981 260.652 116.658C261.414 117.335 261.798 118.223 261.803 119.321C261.798 120.036 261.623 120.67 261.277 121.224C260.936 121.778 260.439 122.214 259.786 122.531C259.137 122.844 258.349 123 257.42 123H252.463V112.091H254.942V120.891H257.42C257.979 120.891 258.438 120.749 258.798 120.464C259.158 120.176 259.338 119.806 259.338 119.357C259.338 118.883 259.158 118.497 258.798 118.199C258.438 117.901 257.979 117.751 257.42 117.751H254.203V115.642ZM263.159 123V112.091H265.73V123H263.159ZM273.211 123.213C272.117 123.213 271.172 122.986 270.377 122.531C269.586 122.072 268.978 121.423 268.552 120.585C268.125 119.742 267.912 118.75 267.912 117.609C267.912 116.487 268.125 115.502 268.552 114.655C268.982 113.803 269.584 113.14 270.356 112.666C271.127 112.188 272.034 111.949 273.076 111.949C273.748 111.949 274.383 112.058 274.979 112.276C275.58 112.489 276.111 112.82 276.57 113.27C277.034 113.72 277.399 114.293 277.664 114.989C277.929 115.68 278.061 116.504 278.061 117.46V118.249H269.12V116.516H275.597C275.592 116.023 275.486 115.585 275.277 115.202C275.069 114.813 274.778 114.508 274.404 114.286C274.034 114.063 273.604 113.952 273.111 113.952C272.586 113.952 272.124 114.08 271.726 114.335C271.329 114.586 271.018 114.918 270.796 115.33C270.578 115.737 270.467 116.184 270.462 116.672V118.185C270.462 118.819 270.578 119.364 270.81 119.818C271.042 120.268 271.366 120.614 271.783 120.855C272.2 121.092 272.687 121.21 273.246 121.21C273.62 121.21 273.959 121.158 274.262 121.054C274.565 120.945 274.828 120.786 275.05 120.578C275.273 120.37 275.441 120.112 275.554 119.804L277.955 120.074C277.803 120.708 277.515 121.262 277.088 121.736C276.667 122.205 276.127 122.569 275.469 122.83C274.811 123.085 274.058 123.213 273.211 123.213ZM285.311 108.455H288.536L292.854 118.994H293.024L297.342 108.455H300.567V123H298.038V113.007H297.903L293.884 122.957H291.994L287.974 112.986H287.84V123H285.311V108.455ZM306.462 123.22C305.77 123.22 305.148 123.097 304.594 122.851C304.045 122.6 303.609 122.231 303.287 121.743C302.97 121.255 302.811 120.654 302.811 119.939C302.811 119.323 302.925 118.814 303.152 118.412C303.379 118.009 303.689 117.688 304.082 117.446C304.475 117.205 304.918 117.022 305.411 116.899C305.908 116.771 306.421 116.679 306.952 116.622C307.591 116.556 308.109 116.497 308.507 116.445C308.905 116.388 309.194 116.303 309.374 116.189C309.558 116.071 309.651 115.888 309.651 115.642V115.599C309.651 115.064 309.492 114.65 309.175 114.357C308.858 114.063 308.401 113.916 307.804 113.916C307.174 113.916 306.675 114.054 306.305 114.328C305.941 114.603 305.695 114.927 305.567 115.301L303.166 114.96C303.356 114.297 303.668 113.743 304.104 113.298C304.539 112.848 305.072 112.512 305.702 112.29C306.331 112.062 307.028 111.949 307.79 111.949C308.315 111.949 308.839 112.01 309.359 112.134C309.88 112.257 310.356 112.46 310.787 112.744C311.218 113.024 311.563 113.405 311.824 113.888C312.089 114.371 312.222 114.974 312.222 115.699V123H309.75V121.501H309.665C309.509 121.804 309.288 122.089 309.004 122.354C308.725 122.614 308.372 122.825 307.946 122.986C307.525 123.142 307.03 123.22 306.462 123.22ZM307.129 121.331C307.645 121.331 308.093 121.229 308.472 121.026C308.85 120.817 309.142 120.543 309.345 120.202C309.554 119.861 309.658 119.489 309.658 119.087V117.801C309.577 117.867 309.44 117.929 309.246 117.986C309.056 118.043 308.843 118.092 308.607 118.135C308.37 118.178 308.135 118.215 307.903 118.249C307.671 118.282 307.47 118.31 307.3 118.334C306.916 118.386 306.573 118.471 306.27 118.589C305.967 118.708 305.728 118.874 305.553 119.087C305.377 119.295 305.29 119.565 305.29 119.896C305.29 120.37 305.463 120.727 305.808 120.969C306.154 121.21 306.594 121.331 307.129 121.331ZM313.585 114.2V112.091H323.131V114.2H319.601V123H317.115V114.2H313.585ZM329.558 123.213C328.465 123.213 327.52 122.986 326.724 122.531C325.934 122.072 325.325 121.423 324.899 120.585C324.473 119.742 324.26 118.75 324.26 117.609C324.26 116.487 324.473 115.502 324.899 114.655C325.33 113.803 325.931 113.14 326.703 112.666C327.475 112.188 328.382 111.949 329.423 111.949C330.096 111.949 330.73 112.058 331.327 112.276C331.928 112.489 332.458 112.82 332.918 113.27C333.382 113.72 333.746 114.293 334.011 114.989C334.277 115.68 334.409 116.504 334.409 117.46V118.249H325.467V116.516H331.945C331.94 116.023 331.833 115.585 331.625 115.202C331.417 114.813 331.126 114.508 330.751 114.286C330.382 114.063 329.951 113.952 329.459 113.952C328.933 113.952 328.472 114.08 328.074 114.335C327.676 114.586 327.366 114.918 327.144 115.33C326.926 115.737 326.814 116.184 326.81 116.672V118.185C326.81 118.819 326.926 119.364 327.158 119.818C327.39 120.268 327.714 120.614 328.131 120.855C328.547 121.092 329.035 121.21 329.594 121.21C329.968 121.21 330.306 121.158 330.609 121.054C330.912 120.945 331.175 120.786 331.398 120.578C331.62 120.37 331.788 120.112 331.902 119.804L334.303 120.074C334.151 120.708 333.862 121.262 333.436 121.736C333.015 122.205 332.475 122.569 331.817 122.83C331.159 123.085 330.406 123.213 329.558 123.213ZM336.584 127.091V112.091H339.113V113.895H339.262C339.394 113.63 339.581 113.348 339.823 113.05C340.064 112.747 340.391 112.489 340.803 112.276C341.215 112.058 341.74 111.949 342.38 111.949C343.222 111.949 343.982 112.164 344.659 112.595C345.341 113.021 345.881 113.653 346.279 114.491C346.681 115.325 346.883 116.348 346.883 117.56C346.883 118.758 346.686 119.776 346.293 120.614C345.9 121.452 345.365 122.091 344.688 122.531C344.011 122.972 343.244 123.192 342.387 123.192C341.762 123.192 341.243 123.088 340.831 122.879C340.419 122.671 340.088 122.42 339.837 122.126C339.591 121.828 339.399 121.546 339.262 121.281H339.155V127.091H336.584ZM339.106 117.545C339.106 118.251 339.205 118.869 339.404 119.399C339.607 119.929 339.899 120.344 340.277 120.642C340.661 120.936 341.125 121.082 341.669 121.082C342.238 121.082 342.713 120.931 343.097 120.628C343.481 120.32 343.769 119.901 343.963 119.371C344.162 118.836 344.262 118.227 344.262 117.545C344.262 116.868 344.165 116.267 343.971 115.741C343.776 115.216 343.488 114.804 343.104 114.506C342.721 114.207 342.242 114.058 341.669 114.058C341.12 114.058 340.654 114.203 340.27 114.491C339.887 114.78 339.596 115.185 339.397 115.706C339.203 116.227 339.106 116.84 339.106 117.545ZM351.563 119.52L355.931 112.091H358.573V123H356.087V115.564L351.733 123H349.084V112.091H351.563V119.52ZM364.352 123.22C363.661 123.22 363.038 123.097 362.484 122.851C361.935 122.6 361.5 122.231 361.178 121.743C360.86 121.255 360.702 120.654 360.702 119.939C360.702 119.323 360.815 118.814 361.043 118.412C361.27 118.009 361.58 117.688 361.973 117.446C362.366 117.205 362.809 117.022 363.301 116.899C363.798 116.771 364.312 116.679 364.842 116.622C365.482 116.556 366 116.497 366.398 116.445C366.795 116.388 367.084 116.303 367.264 116.189C367.449 116.071 367.541 115.888 367.541 115.642V115.599C367.541 115.064 367.383 114.65 367.065 114.357C366.748 114.063 366.291 113.916 365.695 113.916C365.065 113.916 364.565 114.054 364.196 114.328C363.831 114.603 363.585 114.927 363.457 115.301L361.057 114.96C361.246 114.297 361.559 113.743 361.994 113.298C362.43 112.848 362.963 112.512 363.592 112.29C364.222 112.062 364.918 111.949 365.68 111.949C366.206 111.949 366.729 112.01 367.25 112.134C367.771 112.257 368.247 112.46 368.678 112.744C369.108 113.024 369.454 113.405 369.715 113.888C369.98 114.371 370.112 114.974 370.112 115.699V123H367.641V121.501H367.555C367.399 121.804 367.179 122.089 366.895 122.354C366.616 122.614 366.263 122.825 365.837 122.986C365.415 123.142 364.92 123.22 364.352 123.22ZM365.02 121.331C365.536 121.331 365.983 121.229 366.362 121.026C366.741 120.817 367.032 120.543 367.236 120.202C367.444 119.861 367.548 119.489 367.548 119.087V117.801C367.468 117.867 367.331 117.929 367.136 117.986C366.947 118.043 366.734 118.092 366.497 118.135C366.26 118.178 366.026 118.215 365.794 118.249C365.562 118.282 365.361 118.31 365.19 118.334C364.807 118.386 364.464 118.471 364.161 118.589C363.858 118.708 363.618 118.874 363.443 119.087C363.268 119.295 363.18 119.565 363.18 119.896C363.18 120.37 363.353 120.727 363.699 120.969C364.045 121.21 364.485 121.331 365.02 121.331ZM371.945 123L371.93 120.884H372.307C372.591 120.884 372.83 120.82 373.024 120.692C373.218 120.564 373.379 120.351 373.507 120.053C373.635 119.75 373.734 119.342 373.805 118.831C373.876 118.32 373.926 117.683 373.955 116.92L374.146 112.091H382.101V123H379.615V114.2H376.483L376.313 117.716C376.27 118.625 376.168 119.413 376.007 120.081C375.851 120.744 375.628 121.291 375.34 121.722C375.055 122.152 374.698 122.474 374.267 122.688C373.836 122.896 373.327 123 372.74 123H371.945ZM386.43 115.642H389.647C391.039 115.642 392.116 115.981 392.879 116.658C393.641 117.335 394.024 118.223 394.029 119.321C394.024 120.036 393.849 120.67 393.504 121.224C393.163 121.778 392.666 122.214 392.012 122.531C391.363 122.844 390.575 123 389.647 123H384.69V112.091H387.168V120.891H389.647C390.206 120.891 390.665 120.749 391.025 120.464C391.385 120.176 391.565 119.806 391.565 119.357C391.565 118.883 391.385 118.497 391.025 118.199C390.665 117.901 390.206 117.751 389.647 117.751H386.43V115.642ZM395.386 123V112.091H397.957V123H395.386Z" fill="#3C3A45"/>
</svg>
