<svg width="409" height="113" viewBox="0 0 409 113" fill="none" xmlns="http://www.w3.org/2000/svg">
<path d="M61.5664 82L41.4414 55.4375H37.9414V82H22.4727V18H37.9414V42.8437H40.4102L60.2227 18H79.5664L54.9102 48.2187L80.8477 82H61.5664ZM143.121 50C143.121 57.0417 141.767 63.0104 139.059 67.9062C136.35 72.8021 132.684 76.5208 128.059 79.0625C123.454 81.6042 118.288 82.875 112.559 82.875C106.809 82.875 101.632 81.5937 97.0273 79.0312C92.4232 76.4687 88.7669 72.75 86.0586 67.875C83.3711 62.9792 82.0273 57.0208 82.0273 50C82.0273 42.9583 83.3711 36.9896 86.0586 32.0937C88.7669 27.1979 92.4232 23.4792 97.0273 20.9375C101.632 18.3958 106.809 17.125 112.559 17.125C118.288 17.125 123.454 18.3958 128.059 20.9375C132.684 23.4792 136.35 27.1979 139.059 32.0937C141.767 36.9896 143.121 42.9583 143.121 50ZM127.309 50C127.309 45.8333 126.715 42.3125 125.527 39.4375C124.361 36.5625 122.673 34.3854 120.465 32.9062C118.277 31.4271 115.642 30.6875 112.559 30.6875C109.496 30.6875 106.861 31.4271 104.652 32.9062C102.444 34.3854 100.746 36.5625 99.5586 39.4375C98.3919 42.3125 97.8086 45.8333 97.8086 50C97.8086 54.1667 98.3919 57.6875 99.5586 60.5625C100.746 63.4375 102.444 65.6146 104.652 67.0938C106.861 68.5729 109.496 69.3125 112.559 69.3125C115.642 69.3125 118.277 68.5729 120.465 67.0938C122.673 65.6146 124.361 63.4375 125.527 60.5625C126.715 57.6875 127.309 54.1667 127.309 50ZM152.152 82V18H178.84C183.632 18 187.642 18.6771 190.871 20.0312C194.121 21.3854 196.559 23.2812 198.184 25.7187C199.829 28.1562 200.652 30.9792 200.652 34.1875C200.652 36.625 200.142 38.8021 199.121 40.7187C198.1 42.6146 196.694 44.1875 194.902 45.4375C193.111 46.6875 191.038 47.5625 188.684 48.0625V48.6875C191.267 48.8125 193.652 49.5104 195.84 50.7812C198.048 52.0521 199.819 53.8229 201.152 56.0937C202.486 58.3437 203.152 61.0104 203.152 64.0937C203.152 67.5312 202.277 70.6042 200.527 73.3125C198.777 76 196.246 78.125 192.934 79.6875C189.621 81.2292 185.6 82 180.871 82H152.152ZM167.621 69.5312H177.184C180.538 69.5312 183.007 68.8958 184.59 67.625C186.194 66.3542 186.996 64.5833 186.996 62.3125C186.996 60.6667 186.611 59.25 185.84 58.0625C185.069 56.8542 183.975 55.9271 182.559 55.2813C181.142 54.6146 179.444 54.2812 177.465 54.2812H167.621V69.5312ZM167.621 44.3125H176.184C177.871 44.3125 179.371 44.0312 180.684 43.4687C181.996 42.9062 183.017 42.0937 183.746 41.0312C184.496 39.9687 184.871 38.6875 184.871 37.1875C184.871 35.0417 184.111 33.3542 182.59 32.125C181.069 30.8958 179.017 30.2813 176.434 30.2813H167.621V44.3125ZM210.59 82V18H237.027C241.819 18 245.954 18.9375 249.434 20.8125C252.934 22.6667 255.632 25.2604 257.527 28.5937C259.423 31.9062 260.371 35.7604 260.371 40.1562C260.371 44.5729 259.402 48.4375 257.465 51.75C255.548 55.0417 252.809 57.5937 249.246 59.4063C245.684 61.2187 241.454 62.125 236.559 62.125H220.246V49.9375H233.684C236.017 49.9375 237.965 49.5312 239.527 48.7187C241.111 47.9062 242.309 46.7708 243.121 45.3125C243.934 43.8333 244.34 42.1146 244.34 40.1562C244.34 38.1771 243.934 36.4687 243.121 35.0312C242.309 33.5729 241.111 32.4479 239.527 31.6563C237.944 30.8646 235.996 30.4688 233.684 30.4688H226.059V82H210.59ZM267.996 18H283.434V54.875H283.965L309.152 18H322.465V82H306.996V45.0625H306.59L281.09 82H267.996V18ZM371.285 82L351.16 55.4375H347.66V82H332.191V18H347.66V42.8437H350.129L369.941 18H389.285L364.629 48.2187L390.566 82H371.285Z" fill="#3C3A45"/>
<path d="M19.7216 106V88.5455H26.4034C27.6648 88.5455 28.7131 88.7443 29.5483 89.142C30.3892 89.5341 31.017 90.071 31.4318 90.7528C31.8523 91.4347 32.0625 92.2074 32.0625 93.071C32.0625 93.7812 31.9261 94.3892 31.6534 94.8949C31.3807 95.3949 31.0142 95.8011 30.554 96.1136C30.0938 96.4261 29.5795 96.6506 29.0114 96.7869V96.9574C29.6307 96.9915 30.2244 97.1818 30.7926 97.5284C31.3665 97.8693 31.8352 98.3523 32.1989 98.9773C32.5625 99.6023 32.7443 100.358 32.7443 101.244C32.7443 102.148 32.5256 102.96 32.0881 103.682C31.6506 104.398 30.9915 104.963 30.1108 105.378C29.2301 105.793 28.1222 106 26.7869 106H19.7216ZM22.8835 103.358H26.2841C27.4318 103.358 28.2585 103.139 28.7642 102.702C29.2756 102.259 29.5312 101.69 29.5312 100.997C29.5312 100.48 29.4034 100.014 29.1477 99.5994C28.892 99.179 28.5284 98.8494 28.0568 98.6108C27.5852 98.3665 27.0227 98.2443 26.3693 98.2443H22.8835V103.358ZM22.8835 95.9688H26.0114C26.5568 95.9688 27.0483 95.8693 27.4858 95.6705C27.9233 95.4659 28.267 95.179 28.517 94.8097C28.7727 94.4347 28.9006 93.9915 28.9006 93.4801C28.9006 92.804 28.6619 92.2472 28.1847 91.8097C27.7131 91.3722 27.0114 91.1534 26.0795 91.1534H22.8835V95.9688ZM41.0689 106.256C39.7621 106.256 38.6399 105.969 37.7024 105.395C36.7706 104.821 36.0518 104.028 35.5462 103.017C35.0462 102 34.7962 100.83 34.7962 99.5057C34.7962 98.1761 35.0518 97.0028 35.5632 95.9858C36.0746 94.9631 36.7962 94.1676 37.728 93.5994C38.6655 93.0256 39.7734 92.7386 41.0518 92.7386C42.1143 92.7386 43.0547 92.9347 43.8729 93.3267C44.6967 93.7131 45.353 94.2614 45.8416 94.9716C46.3303 95.6761 46.6087 96.5 46.6768 97.4432H43.728C43.6087 96.8125 43.3246 96.2869 42.8757 95.8665C42.4325 95.4403 41.8388 95.2273 41.0945 95.2273C40.4638 95.2273 39.9098 95.3977 39.4325 95.7386C38.9553 96.0739 38.5831 96.5568 38.3161 97.1875C38.0547 97.8182 37.924 98.5739 37.924 99.4545C37.924 100.347 38.0547 101.114 38.3161 101.756C38.5774 102.392 38.9439 102.884 39.4155 103.23C39.8928 103.571 40.4524 103.741 41.0945 103.741C41.549 103.741 41.9553 103.656 42.3132 103.486C42.6768 103.31 42.9808 103.057 43.2251 102.727C43.4695 102.398 43.6371 101.997 43.728 101.526H46.6768C46.603 102.452 46.3303 103.273 45.8587 103.989C45.3871 104.699 44.745 105.256 43.9325 105.659C43.12 106.057 42.1655 106.256 41.0689 106.256ZM55.0057 106.256C53.6932 106.256 52.5597 105.983 51.6051 105.438C50.6563 104.886 49.9261 104.108 49.4148 103.102C48.9034 102.091 48.6477 100.901 48.6477 99.5312C48.6477 98.1847 48.9034 97.0028 49.4148 95.9858C49.9318 94.9631 50.6534 94.1676 51.5795 93.5994C52.5057 93.0256 53.5938 92.7386 54.8438 92.7386C55.6506 92.7386 56.4119 92.8693 57.1278 93.1307C57.8494 93.3864 58.4858 93.7841 59.0369 94.3239C59.5938 94.8636 60.0313 95.5511 60.3494 96.3864C60.6676 97.2159 60.8267 98.2045 60.8267 99.3523V100.298H50.0966V98.2188H57.8693C57.8636 97.6278 57.7358 97.1023 57.4858 96.642C57.2358 96.1761 56.8864 95.8097 56.4375 95.5426C55.9943 95.2756 55.4773 95.142 54.8864 95.142C54.2557 95.142 53.7017 95.2955 53.2244 95.6023C52.7472 95.9034 52.375 96.3011 52.108 96.7955C51.8466 97.2841 51.7131 97.821 51.7074 98.4062V100.222C51.7074 100.983 51.8466 101.636 52.125 102.182C52.4034 102.722 52.7926 103.136 53.2926 103.426C53.7926 103.71 54.3778 103.852 55.0483 103.852C55.4972 103.852 55.9034 103.79 56.267 103.665C56.6307 103.534 56.946 103.344 57.2131 103.094C57.4801 102.844 57.6818 102.534 57.8182 102.165L60.6989 102.489C60.517 103.25 60.1705 103.915 59.6591 104.483C59.1534 105.045 58.5057 105.483 57.7159 105.795C56.9261 106.102 56.0227 106.256 55.0057 106.256ZM69.3899 106V92.9091H74.8871C76.4382 92.9091 77.6626 93.2187 78.5604 93.8381C79.4638 94.4574 79.9155 95.321 79.9155 96.429C79.9155 97.1619 79.6598 97.7614 79.1484 98.2273C78.6428 98.6875 77.9524 98.9972 77.0774 99.1562C77.7649 99.2131 78.3672 99.3864 78.8842 99.6761C79.407 99.9659 79.8161 100.347 80.1115 100.818C80.407 101.29 80.5547 101.832 80.5547 102.446C80.5547 103.168 80.3643 103.795 79.9837 104.33C79.6087 104.858 79.0604 105.27 78.3388 105.565C77.6229 105.855 76.7536 106 75.7308 106H69.3899ZM72.2791 103.571H75.7308C76.299 103.571 76.745 103.437 77.0689 103.17C77.3928 102.898 77.5547 102.528 77.5547 102.062C77.5547 101.523 77.3928 101.099 77.0689 100.793C76.745 100.48 76.299 100.324 75.7308 100.324H72.2791V103.571ZM72.2791 98.3295H74.9467C75.3672 98.3295 75.728 98.2699 76.0291 98.1506C76.3303 98.0256 76.5604 97.8523 76.7195 97.6307C76.8786 97.4034 76.9581 97.1335 76.9581 96.821C76.9581 96.3722 76.7734 96.0199 76.4041 95.7642C76.0405 95.5085 75.5348 95.3807 74.8871 95.3807H72.2791V98.3295ZM86.0753 101.824L91.3168 92.9091H94.4872V106H91.5043V97.0767L86.2798 106H83.1009V92.9091H86.0753V101.824ZM96.4964 109.801V103.46H97.5362C97.8146 103.244 98.0476 102.952 98.2351 102.582C98.4226 102.207 98.576 101.767 98.6953 101.261C98.8203 100.75 98.9226 100.179 99.0021 99.5483C99.0817 98.9119 99.1527 98.2273 99.2152 97.4943L99.5902 92.9091H109.05V103.46H111.079V109.801H108.096V106H99.5305V109.801H96.4964ZM100.707 103.46H106.102V95.3977H102.266L102.062 97.4943C101.948 98.8807 101.798 100.068 101.61 101.057C101.423 102.045 101.121 102.847 100.707 103.46ZM115.47 97.1705H119.331C121.001 97.1705 122.294 97.5767 123.209 98.3892C124.124 99.2017 124.584 100.267 124.589 101.585C124.584 102.443 124.374 103.205 123.959 103.869C123.55 104.534 122.953 105.057 122.169 105.438C121.391 105.812 120.445 106 119.331 106H113.382V92.9091H116.357V103.469H119.331C120.001 103.469 120.553 103.298 120.984 102.957C121.416 102.611 121.632 102.168 121.632 101.628C121.632 101.06 121.416 100.597 120.984 100.239C120.553 99.8807 120.001 99.7017 119.331 99.7017H115.47V97.1705ZM126.217 106V92.9091H129.303V106H126.217ZM147.428 98.1761V100.707H140.457V98.1761H147.428ZM141.411 92.9091V106H138.437V92.9091H141.411ZM149.448 92.9091V106H146.482V92.9091H149.448ZM156.337 106.264C155.507 106.264 154.76 106.116 154.095 105.821C153.436 105.52 152.913 105.077 152.527 104.491C152.146 103.906 151.956 103.185 151.956 102.327C151.956 101.588 152.092 100.977 152.365 100.494C152.638 100.011 153.01 99.625 153.482 99.3352C153.953 99.0455 154.484 98.8267 155.075 98.679C155.672 98.5256 156.288 98.4148 156.925 98.3466C157.692 98.267 158.314 98.196 158.791 98.1335C159.268 98.0653 159.615 97.9631 159.831 97.8267C160.053 97.6847 160.163 97.4659 160.163 97.1705V97.1193C160.163 96.4773 159.973 95.9801 159.592 95.6278C159.212 95.2756 158.663 95.0994 157.947 95.0994C157.192 95.0994 156.592 95.2642 156.149 95.5938C155.712 95.9233 155.416 96.3125 155.263 96.7614L152.382 96.3523C152.609 95.5568 152.984 94.892 153.507 94.358C154.03 93.8182 154.669 93.4148 155.425 93.1477C156.18 92.875 157.016 92.7386 157.93 92.7386C158.561 92.7386 159.189 92.8125 159.814 92.9602C160.439 93.108 161.01 93.3523 161.527 93.6932C162.044 94.0284 162.459 94.4858 162.771 95.0653C163.089 95.6449 163.249 96.3693 163.249 97.2386V106H160.283V104.202H160.18C159.993 104.565 159.729 104.906 159.388 105.224C159.053 105.537 158.629 105.79 158.118 105.983C157.612 106.17 157.018 106.264 156.337 106.264ZM157.138 103.997C157.757 103.997 158.294 103.875 158.749 103.631C159.203 103.381 159.553 103.051 159.797 102.642C160.047 102.233 160.172 101.787 160.172 101.304V99.7614C160.075 99.8409 159.911 99.9148 159.678 99.983C159.45 100.051 159.195 100.111 158.911 100.162C158.626 100.213 158.345 100.259 158.067 100.298C157.788 100.338 157.547 100.372 157.342 100.401C156.882 100.463 156.47 100.565 156.107 100.707C155.743 100.849 155.456 101.048 155.246 101.304C155.036 101.554 154.93 101.878 154.93 102.276C154.93 102.844 155.138 103.273 155.553 103.562C155.967 103.852 156.496 103.997 157.138 103.997ZM166.351 106V92.9091H177.405V106H174.43V95.4403H169.3V106H166.351ZM186.288 106.256C185.009 106.256 183.901 105.974 182.964 105.412C182.026 104.849 181.299 104.062 180.782 103.051C180.271 102.04 180.015 100.858 180.015 99.5057C180.015 98.1534 180.271 96.9687 180.782 95.9517C181.299 94.9347 182.026 94.1449 182.964 93.5824C183.901 93.0199 185.009 92.7386 186.288 92.7386C187.566 92.7386 188.674 93.0199 189.612 93.5824C190.549 94.1449 191.273 94.9347 191.785 95.9517C192.302 96.9687 192.56 98.1534 192.56 99.5057C192.56 100.858 192.302 102.04 191.785 103.051C191.273 104.062 190.549 104.849 189.612 105.412C188.674 105.974 187.566 106.256 186.288 106.256ZM186.305 103.784C186.998 103.784 187.577 103.594 188.043 103.213C188.509 102.827 188.856 102.31 189.083 101.662C189.316 101.014 189.433 100.293 189.433 99.4972C189.433 98.696 189.316 97.9716 189.083 97.3239C188.856 96.6705 188.509 96.1506 188.043 95.7642C187.577 95.3778 186.998 95.1847 186.305 95.1847C185.594 95.1847 185.004 95.3778 184.532 95.7642C184.066 96.1506 183.717 96.6705 183.484 97.3239C183.256 97.9716 183.143 98.696 183.143 99.4972C183.143 100.293 183.256 101.014 183.484 101.662C183.717 102.31 184.066 102.827 184.532 103.213C185.004 103.594 185.594 103.784 186.305 103.784ZM194.276 106L194.259 103.46H194.71C195.051 103.46 195.338 103.384 195.571 103.23C195.804 103.077 195.997 102.821 196.151 102.463C196.304 102.099 196.423 101.611 196.509 100.997C196.594 100.384 196.653 99.6193 196.688 98.7045L196.918 92.9091H206.463V106H203.48V95.4403H199.722L199.517 99.6591C199.466 100.75 199.344 101.696 199.151 102.497C198.963 103.293 198.696 103.949 198.349 104.466C198.009 104.983 197.58 105.369 197.062 105.625C196.545 105.875 195.935 106 195.23 106H194.276ZM211.658 97.1705H215.518C217.189 97.1705 218.482 97.5767 219.396 98.3892C220.311 99.2017 220.771 100.267 220.777 101.585C220.771 102.443 220.561 103.205 220.146 103.869C219.737 104.534 219.141 105.057 218.357 105.438C217.578 105.812 216.632 106 215.518 106H209.57V92.9091H212.544V103.469H215.518C216.189 103.469 216.74 103.298 217.172 102.957C217.604 102.611 217.82 102.168 217.82 101.628C217.82 101.06 217.604 100.597 217.172 100.239C216.74 99.8807 216.189 99.7017 215.518 99.7017H211.658V97.1705ZM232.413 98.1761V100.707H225.441V98.1761H232.413ZM226.396 92.9091V106H223.421V92.9091H226.396ZM234.433 92.9091V106H231.467V92.9091H234.433ZM239.642 97.1705H243.503C245.173 97.1705 246.466 97.5767 247.381 98.3892C248.295 99.2017 248.756 100.267 248.761 101.585C248.756 102.443 248.545 103.205 248.131 103.869C247.722 104.534 247.125 105.057 246.341 105.438C245.563 105.812 244.616 106 243.503 106H237.554V92.9091H240.528V103.469H243.503C244.173 103.469 244.724 103.298 245.156 102.957C245.588 102.611 245.804 102.168 245.804 101.628C245.804 101.06 245.588 100.597 245.156 100.239C244.724 99.8807 244.173 99.7017 243.503 99.7017H239.642V97.1705ZM250.389 106V92.9091H253.474V106H250.389ZM259.178 92.9091L261.82 97.7415L264.505 92.9091H267.769L263.823 99.4545L267.837 106H264.59L261.82 101.287L259.076 106H255.803L259.792 99.4545L255.906 92.9091H259.178ZM276.109 106V92.9091H287.163V106H284.188V95.4403H279.058V106H276.109ZM296.045 106.256C294.767 106.256 293.659 105.974 292.722 105.412C291.784 104.849 291.057 104.062 290.54 103.051C290.028 102.04 289.773 100.858 289.773 99.5057C289.773 98.1534 290.028 96.9687 290.54 95.9517C291.057 94.9347 291.784 94.1449 292.722 93.5824C293.659 93.0199 294.767 92.7386 296.045 92.7386C297.324 92.7386 298.432 93.0199 299.369 93.5824C300.307 94.1449 301.031 94.9347 301.543 95.9517C302.06 96.9687 302.318 98.1534 302.318 99.5057C302.318 100.858 302.06 102.04 301.543 103.051C301.031 104.062 300.307 104.849 299.369 105.412C298.432 105.974 297.324 106.256 296.045 106.256ZM296.062 103.784C296.756 103.784 297.335 103.594 297.801 103.213C298.267 102.827 298.614 102.31 298.841 101.662C299.074 101.014 299.19 100.293 299.19 99.4972C299.19 98.696 299.074 97.9716 298.841 97.3239C298.614 96.6705 298.267 96.1506 297.801 95.7642C297.335 95.3778 296.756 95.1847 296.062 95.1847C295.352 95.1847 294.761 95.3778 294.29 95.7642C293.824 96.1506 293.474 96.6705 293.241 97.3239C293.014 97.9716 292.901 98.696 292.901 99.4972C292.901 100.293 293.014 101.014 293.241 101.662C293.474 102.31 293.824 102.827 294.29 103.213C294.761 103.594 295.352 103.784 296.062 103.784ZM304.937 106V92.9091H308.022V98.1932H309.147L313.085 92.9091H316.8L311.951 99.3352L316.852 106H313.119L309.531 101.065H308.022V106H304.937ZM318.601 110.909V92.9091H321.635V95.0739H321.814C321.973 94.7557 322.197 94.4176 322.487 94.0597C322.777 93.696 323.169 93.3864 323.663 93.1307C324.158 92.8693 324.788 92.7386 325.555 92.7386C326.567 92.7386 327.479 92.9972 328.291 93.5142C329.109 94.0256 329.757 94.7841 330.234 95.7898C330.717 96.7898 330.959 98.017 330.959 99.4716C330.959 100.909 330.723 102.131 330.251 103.136C329.78 104.142 329.138 104.909 328.325 105.438C327.513 105.966 326.592 106.23 325.564 106.23C324.814 106.23 324.192 106.105 323.697 105.855C323.203 105.605 322.805 105.304 322.504 104.952C322.209 104.594 321.979 104.256 321.814 103.938H321.686V110.909H318.601ZM321.626 99.4545C321.626 100.301 321.746 101.043 321.984 101.679C322.229 102.315 322.578 102.812 323.033 103.17C323.493 103.523 324.05 103.699 324.703 103.699C325.385 103.699 325.956 103.517 326.416 103.153C326.876 102.784 327.223 102.281 327.456 101.645C327.695 101.003 327.814 100.273 327.814 99.4545C327.814 98.642 327.697 97.9205 327.464 97.2898C327.232 96.6591 326.885 96.1648 326.425 95.8068C325.964 95.4489 325.391 95.2699 324.703 95.2699C324.044 95.2699 323.484 95.4432 323.024 95.7898C322.564 96.1364 322.214 96.6222 321.976 97.2472C321.743 97.8722 321.626 98.608 321.626 99.4545ZM335.689 97.1705H339.55C341.22 97.1705 342.513 97.5767 343.428 98.3892C344.342 99.2017 344.803 100.267 344.808 101.585C344.803 102.443 344.592 103.205 344.178 103.869C343.768 104.534 343.172 105.057 342.388 105.438C341.609 105.812 340.663 106 339.55 106H333.601V92.9091H336.575V103.469H339.55C340.22 103.469 340.771 103.298 341.203 102.957C341.635 102.611 341.851 102.168 341.851 101.628C341.851 101.06 341.635 100.597 341.203 100.239C340.771 99.8807 340.22 99.7017 339.55 99.7017H335.689V97.1705ZM346.436 106V92.9091H349.521V106H346.436ZM351.987 95.4403V92.9091H363.441V95.4403H359.205V106H356.222V95.4403H351.987ZM368.872 101.824L374.114 92.9091H377.284V106H374.301V97.0767L369.077 106H365.898V92.9091H368.872V101.824ZM383.427 101.824L388.668 92.9091H391.839V106H388.856V97.0767L383.631 106H380.452V92.9091H383.427V101.824ZM387.825 88.4091H390.134C390.134 89.4034 389.773 90.2102 389.052 90.8295C388.336 91.4432 387.364 91.75 386.137 91.75C384.921 91.75 383.952 91.4432 383.231 90.8295C382.515 90.2102 382.16 89.4034 382.165 88.4091H384.458C384.458 88.8182 384.583 89.1847 384.833 89.5085C385.089 89.8267 385.523 89.9858 386.137 89.9858C386.739 89.9858 387.168 89.8267 387.424 89.5085C387.685 89.1903 387.819 88.8239 387.825 88.4091Z" fill="#3C3A45"/>
</svg>
