<svg width="53" height="44" viewBox="0 0 53 44" fill="none" xmlns="http://www.w3.org/2000/svg">
<path d="M3.64584 18.942C17.8706 12.7332 27.3571 8.6392 32.1053 6.66013C45.6586 1.01352 48.4728 0.0330373 50.3083 0.000445053C50.7149 -0.00770301 51.6151 0.0927899 52.2007 0.57081C52.6941 0.970065 52.8297 1.51327 52.8947 1.89351C52.9598 2.27375 53.0411 3.14017 52.9761 3.81646C52.2441 11.549 49.0638 30.3085 47.4452 38.9672C46.762 42.6284 45.4173 43.856 44.1105 43.9783C41.2773 44.239 39.1273 42.1042 36.3835 40.3008C32.0863 37.4788 29.6598 35.7215 25.49 32.9702C20.6722 29.7898 23.7955 28.0406 26.5419 25.1834C27.2604 24.4365 39.7454 13.0591 39.9894 12.027C40.0166 11.8966 40.0464 11.4159 39.7617 11.1633C39.477 10.908 39.0568 10.9949 38.7504 11.0655C38.3184 11.1633 31.4573 15.7063 18.167 24.6945C16.2168 26.0344 14.4527 26.6872 12.8748 26.6528C11.1315 26.6147 7.7777 25.6668 5.28882 24.8548C2.23059 23.858 -0.19864 23.3338 0.0128336 21.6417C0.123089 20.7617 1.33409 19.8618 3.64584 18.942Z" fill="white"/>
</svg>
