<svg width="46" height="46" viewBox="0 0 46 46" fill="none" xmlns="http://www.w3.org/2000/svg">
<path d="M3.22 3.22C6.09292e-07 6.47067 0 11.6687 0 22.08V23.92C0 34.316 6.09292e-07 39.514 3.22 42.78C6.47067 46 11.6687 46 22.08 46H23.92C34.316 46 39.514 46 42.78 42.78C46 39.5293 46 34.3313 46 23.92V22.08C46 11.684 46 6.486 42.78 3.22C39.5293 6.09292e-07 34.3313 0 23.92 0H22.08C11.684 0 6.486 6.09292e-07 3.22 3.22ZM7.75867 13.9993H13.0333C13.202 22.77 17.066 26.4807 20.1327 27.2473V13.9993H25.0853V21.5587C28.106 21.2367 31.2953 17.7867 32.3687 13.984H37.306C36.9031 15.9523 36.0988 17.8165 34.9433 19.4601C33.7878 21.1037 32.3058 22.4914 30.59 23.5367C32.5052 24.4896 34.1966 25.8378 35.5525 27.4923C36.9084 29.1469 37.898 31.0702 38.456 33.1353H33.0127C31.8473 29.5013 28.934 26.68 25.0853 26.2967V33.1353H24.472C13.984 33.1353 8.004 25.9593 7.75867 13.9993Z" fill="white"/>
</svg>
