<svg width="187" height="58" viewBox="0 0 187 58" fill="none" xmlns="http://www.w3.org/2000/svg">
<path d="M23.1035 37.0075V6.60991H35.8238C38.1076 6.60991 40.0191 6.93152 41.5583 7.57467C43.1073 8.21786 44.269 9.11832 45.0436 10.276C45.8279 11.4338 46.2203 12.7745 46.2203 14.2984C46.2203 15.4561 45.9769 16.4901 45.4906 17.4005C45.0039 18.3009 44.3337 19.048 43.4797 19.6417C42.6257 20.2354 41.6377 20.651 40.5156 20.8885V21.1853C41.7469 21.2447 42.8839 21.5762 43.9264 22.1798C44.979 22.7833 45.8231 23.6245 46.4588 24.703C47.0941 25.7717 47.4117 27.0382 47.4117 28.5027C47.4117 30.1354 46.9949 31.5949 46.1608 32.8812C45.3268 34.1577 44.12 35.167 42.5413 35.9091C40.9625 36.6414 39.046 37.0075 36.7919 37.0075H23.1035ZM30.4765 31.0853H35.0343C36.633 31.0853 37.8097 30.7835 38.5644 30.1799C39.329 29.5763 39.7113 28.7352 39.7113 27.6567C39.7113 26.875 39.5276 26.2021 39.1602 25.6381C38.7928 25.0642 38.2714 24.6238 37.5962 24.3171C36.921 24.0004 36.1117 23.8421 35.1684 23.8421H30.4765V31.0853ZM30.4765 19.1074H34.5577C35.362 19.1074 36.0769 18.9737 36.7025 18.7066C37.3281 18.4394 37.8147 18.0535 38.1622 17.5489C38.5197 17.0442 38.6984 16.4357 38.6984 15.7232C38.6984 14.704 38.336 13.9026 37.6111 13.3187C36.8862 12.7349 35.9081 12.443 34.6768 12.443H30.4765V19.1074ZM50.9569 6.60991H58.315V24.1241H58.5684L70.5735 6.60991H76.9188V37.0075H69.5459V19.4635H69.3519L57.1978 37.0075H50.9569V6.60991ZM93.0983 37.423C90.7748 37.423 88.7143 37.0273 86.9168 36.2357C85.1294 35.4342 83.7194 34.3309 82.6866 32.9258C81.6541 31.5207 81.1277 29.9028 81.108 28.0723H88.5255C88.5552 28.7352 88.7689 29.324 89.166 29.8385C89.5632 30.3432 90.1045 30.739 90.7896 31.0259C91.4747 31.3129 92.2542 31.4564 93.128 31.4564C94.0018 31.4564 94.7712 31.303 95.4367 30.9962C96.1121 30.6796 96.6382 30.2492 97.0157 29.7049C97.3927 29.1508 97.5767 28.5175 97.5666 27.8051C97.5767 27.0927 97.3731 26.4593 96.9558 25.9052C96.539 25.3511 95.9483 24.9207 95.1837 24.6139C94.4287 24.3072 93.5352 24.1538 92.5023 24.1538H89.5383V18.9292H92.5023C93.4059 18.9292 94.2006 18.7808 94.8857 18.4839C95.5808 18.1871 96.1217 17.7715 96.5093 17.2372C96.8964 16.693 97.0851 16.0696 97.0751 15.367C97.0851 14.6843 96.9213 14.0856 96.5836 13.5711C96.2559 13.0466 95.794 12.6409 95.1985 12.354C94.6126 12.067 93.9324 11.9236 93.1577 11.9236C92.3437 11.9236 91.6036 12.067 90.9386 12.354C90.2832 12.6409 89.7616 13.0466 89.3744 13.5711C88.9873 14.0955 88.7837 14.704 88.7636 15.3967H81.7184C81.7385 13.5859 82.2448 11.9928 83.238 10.6174C84.2306 9.23208 85.5811 8.14859 87.289 7.36691C89.007 6.58518 90.9631 6.19434 93.1577 6.19434C95.3423 6.19434 97.2638 6.5753 98.9219 7.33721C100.58 8.09913 101.871 9.13808 102.795 10.4542C103.718 11.7603 104.18 13.2396 104.18 14.892C104.19 16.6039 103.629 18.0139 102.497 19.1222C101.375 20.2304 99.9299 20.9132 98.1626 21.1705V21.408C100.526 21.685 102.308 22.4469 103.51 23.6937C104.721 24.9405 105.322 26.4989 105.312 28.3691C105.312 30.1304 104.791 31.6939 103.748 33.0593C102.715 34.415 101.276 35.4836 99.4283 36.2654C97.5915 37.0372 95.4812 37.423 93.0983 37.423ZM109.531 6.60991H116.889V24.1241H117.142L129.147 6.60991H135.493V37.0075H128.12V19.4635H127.926L115.772 37.0075H109.531V6.60991ZM139.131 12.5766V6.60991H164.914V12.5766H155.664V37.0075H148.395V12.5766H139.131Z" fill="white"/>
<path d="M12.6011 49.2231H11.4405C11.4074 49.0337 11.3464 48.8656 11.2575 48.7193C11.1685 48.5709 11.0578 48.445 10.9254 48.3418C10.793 48.2387 10.642 48.1616 10.4724 48.1098C10.3048 48.0562 10.1238 48.0297 9.92932 48.0297C9.58384 48.0297 9.27767 48.1163 9.01081 48.2892C8.74394 48.4603 8.535 48.7119 8.38398 49.0437C8.23296 49.3737 8.15746 49.7769 8.15746 50.2527C8.15746 50.7373 8.23296 51.1453 8.38398 51.4775C8.53707 51.8071 8.74601 52.0565 9.01081 52.2259C9.27767 52.3926 9.58281 52.4762 9.92622 52.4762C10.1165 52.4762 10.2945 52.4514 10.46 52.4018C10.6275 52.3504 10.7775 52.2751 10.9099 52.1763C11.0444 52.0774 11.1571 51.9555 11.2481 51.8114C11.3412 51.6669 11.4053 51.5023 11.4405 51.3164L12.6011 51.3229C12.5576 51.6238 12.4635 51.9063 12.3187 52.1702C12.176 52.434 11.9888 52.6669 11.7571 52.8689C11.5253 53.0688 11.2544 53.2255 10.9441 53.3387C10.6337 53.4502 10.2893 53.5059 9.9107 53.5059C9.35215 53.5059 8.85358 53.377 8.41501 53.1193C7.97644 52.8615 7.63096 52.4897 7.37858 52.003C7.12619 51.5167 7 50.9332 7 50.2527C7 49.5705 7.12723 48.9871 7.38168 48.5025C7.63613 48.0162 7.98265 47.6439 8.42122 47.3862C8.85979 47.1289 9.35628 47 9.9107 47C10.2645 47 10.5934 47.0492 10.8975 47.1485C11.2016 47.2473 11.4726 47.3927 11.7105 47.5843C11.9484 47.7741 12.1439 48.007 12.297 48.2831C12.4522 48.5574 12.5535 48.8708 12.6011 49.2231ZM13.345 49.5879V48.6697H17.5156V49.5879H15.9734V53.4193H14.8873V49.5879H13.345ZM18.4101 55.2004V48.6697H19.5148V49.4551H19.58C19.6379 49.3397 19.7196 49.217 19.8251 49.0872C19.9306 48.9553 20.0733 48.843 20.2533 48.7502C20.4333 48.6553 20.6629 48.6079 20.9422 48.6079C21.3105 48.6079 21.6425 48.7015 21.9383 48.8891C22.2362 49.0746 22.472 49.3498 22.6458 49.7146C22.8217 50.0777 22.9096 50.5231 22.9096 51.0508C22.9096 51.5724 22.8237 52.0156 22.652 52.3804C22.4803 52.7453 22.2465 53.0235 21.9507 53.2151C21.6549 53.4071 21.3198 53.5029 20.9453 53.5029C20.6722 53.5029 20.4457 53.4576 20.2657 53.3666C20.0858 53.276 19.9409 53.1667 19.8313 53.0387C19.7237 52.909 19.6399 52.7862 19.58 52.6708H19.5334V55.2004H18.4101ZM19.5117 51.0443C19.5117 51.3516 19.5551 51.6207 19.642 51.8515C19.731 52.0822 19.8582 52.2629 20.0237 52.3926C20.1912 52.5206 20.394 52.5842 20.6319 52.5842C20.8801 52.5842 21.0881 52.5185 21.2556 52.3865C21.4232 52.2524 21.5494 52.07 21.6342 51.8393C21.7211 51.6063 21.7645 51.3412 21.7645 51.0443C21.7645 50.7495 21.7221 50.4878 21.6373 50.2588C21.5525 50.0303 21.4263 49.8509 21.2587 49.7211C21.0912 49.591 20.8822 49.5261 20.6319 49.5261C20.3919 49.5261 20.1881 49.5892 20.0206 49.7146C19.853 49.8404 19.7258 50.0168 19.6389 50.2436C19.5541 50.4704 19.5117 50.7373 19.5117 51.0443ZM25.9506 53.512C25.4851 53.512 25.0817 53.4101 24.7404 53.2059C24.3991 53.0017 24.1343 52.7161 23.946 52.3495C23.7598 51.9825 23.6667 51.5537 23.6667 51.063C23.6667 50.5723 23.7598 50.1426 23.946 49.7734C24.1343 49.4046 24.3991 49.1181 24.7404 48.9139C25.0817 48.7097 25.4851 48.6079 25.9506 48.6079C26.4161 48.6079 26.8195 48.7097 27.1608 48.9139C27.5022 49.1181 27.7659 49.4046 27.9521 49.7734C28.1404 50.1426 28.2345 50.5723 28.2345 51.063C28.2345 51.5537 28.1404 51.9825 27.9521 52.3495C27.7659 52.7161 27.5022 53.0017 27.1608 53.2059C26.8195 53.4101 26.4161 53.512 25.9506 53.512ZM25.9568 52.6151C26.2092 52.6151 26.4202 52.5463 26.5898 52.4083C26.7595 52.2681 26.8857 52.0805 26.9684 51.8454C27.0532 51.6103 27.0957 51.3486 27.0957 51.0599C27.0957 50.7691 27.0532 50.5066 26.9684 50.2715C26.8857 50.0342 26.7595 49.8457 26.5898 49.7055C26.4202 49.5653 26.2092 49.4952 25.9568 49.4952C25.6982 49.4952 25.4831 49.5653 25.3114 49.7055C25.1417 49.8457 25.0145 50.0342 24.9297 50.2715C24.8469 50.5066 24.8056 50.7691 24.8056 51.0599C24.8056 51.3486 24.8469 51.6103 24.9297 51.8454C25.0145 52.0805 25.1417 52.2681 25.3114 52.4083C25.4831 52.5463 25.6982 52.6151 25.9568 52.6151ZM30.2709 51.9041L32.1793 48.6697H33.3336V53.4193H32.2475V50.1818L30.3453 53.4193H29.1879V48.6697H30.2709V51.9041ZM33.9535 49.5879V48.6697H38.1241V49.5879H36.5818V53.4193H35.4957V49.5879H33.9535ZM40.9323 53.512C40.4545 53.512 40.0418 53.4132 39.6942 53.2151C39.3487 53.0152 39.0829 52.7327 38.8967 52.3678C38.7105 52.0008 38.6174 51.5689 38.6174 51.0721C38.6174 50.5836 38.7105 50.1548 38.8967 49.786C39.085 49.4151 39.3477 49.1264 39.6849 48.92C40.0221 48.7119 40.4183 48.6079 40.8734 48.6079C41.1671 48.6079 41.4444 48.6553 41.705 48.7502C41.9677 48.843 42.1994 48.9871 42.4001 49.183C42.6028 49.3789 42.7621 49.6284 42.878 49.9314C42.9938 50.2323 43.0518 50.591 43.0518 51.0073V51.3508H39.145V50.5963H41.975C41.9729 50.3816 41.9264 50.1909 41.8354 50.0242C41.7443 49.8548 41.6171 49.722 41.4537 49.6254C41.2923 49.5283 41.104 49.4799 40.8889 49.4799C40.6593 49.4799 40.4576 49.5357 40.2838 49.6467C40.11 49.756 39.9745 49.9005 39.8773 50.0799C39.7821 50.2571 39.7335 50.4517 39.7314 50.6642V51.3229C39.7314 51.5989 39.7821 51.8362 39.8835 52.0339C39.9849 52.2298 40.1266 52.3804 40.3086 52.4854C40.4907 52.5886 40.7038 52.6399 40.9479 52.6399C41.1113 52.6399 41.2592 52.6173 41.3916 52.572C41.524 52.5246 41.6388 52.4553 41.736 52.3648C41.8333 52.2742 41.9067 52.1619 41.9564 52.0278L43.0052 52.1453C42.939 52.4214 42.8128 52.6626 42.6267 52.8689C42.4425 53.0731 42.2067 53.2316 41.9191 53.3453C41.6316 53.4563 41.3027 53.512 40.9323 53.512ZM43.6732 53.4193L43.667 52.498H43.8314C43.9555 52.498 44.06 52.4701 44.1448 52.4144C44.2297 52.3587 44.3 52.2659 44.3558 52.1362C44.4117 52.0043 44.4552 51.8266 44.4862 51.6042C44.5172 51.3817 44.5389 51.1043 44.5513 50.7721L44.6351 48.6697H48.1106V53.4193H47.0245V49.5879H45.6561L45.5816 51.1187C45.563 51.5145 45.5185 51.8576 45.4481 52.1484C45.3799 52.437 45.2826 52.6752 45.1564 52.8629C45.0323 53.0501 44.8761 53.1903 44.6879 53.2834C44.4996 53.374 44.2772 53.4193 44.0207 53.4193H43.6732ZM50.0019 50.2157H51.4075C52.0157 50.2157 52.4863 50.3633 52.8196 50.6581C53.1526 50.9528 53.3204 51.3394 53.3221 51.8175C53.3204 52.1288 53.2435 52.4048 53.0927 52.646C52.9437 52.8872 52.7266 53.0771 52.4408 53.2151C52.1577 53.3513 51.813 53.4193 51.4075 53.4193H49.2417V48.6697H50.3249V52.501H51.4075C51.6518 52.501 51.8523 52.4392 52.0096 52.3151C52.1669 52.1897 52.2455 52.0287 52.2455 51.8332C52.2455 51.6268 52.1669 51.4587 52.0096 51.329C51.8523 51.1993 51.6518 51.1339 51.4075 51.1339H50.0019V50.2157ZM57.5589 50.5806V51.4988H55.0204V50.5806H57.5589ZM55.3677 48.6697V53.4193H54.2851V48.6697H55.3677ZM58.2942 48.6697V53.4193H57.2141V48.6697H58.2942ZM60.1909 50.2157H61.5968C62.205 50.2157 62.6756 50.3633 63.0085 50.6581C63.3415 50.9528 63.5092 51.3394 63.5114 51.8175C63.5092 52.1288 63.4328 52.4048 63.2816 52.646C63.1326 52.8872 62.9155 53.0771 62.6302 53.2151C62.3466 53.3513 62.0023 53.4193 61.5968 53.4193H59.4306V48.6697H60.5137V52.501H61.5968C61.8406 52.501 62.0416 52.4392 62.1985 52.3151C62.3558 52.1897 62.4344 52.0287 62.4344 51.8332C62.4344 51.6268 62.3558 51.4587 62.1985 51.329C62.0416 51.1993 61.8406 51.1339 61.5968 51.1339H60.1909V50.2157ZM64.1039 53.4193V48.6697H65.2272V53.4193H64.1039ZM68.4958 53.512C68.0178 53.512 67.6049 53.4132 67.2575 53.2151C66.9119 53.0152 66.6463 52.7327 66.4602 52.3678C66.2736 52.0008 66.1805 51.5689 66.1805 51.0721C66.1805 50.5836 66.2736 50.1548 66.4602 49.786C66.648 49.4151 66.9111 49.1264 67.2484 48.92C67.5852 48.7119 67.9815 48.6079 68.4368 48.6079C68.7304 48.6079 69.0078 48.6553 69.2682 48.7502C69.5308 48.843 69.7628 48.9871 69.9634 49.183C70.1661 49.3789 70.3256 49.6284 70.4413 49.9314C70.5571 50.2323 70.6152 50.591 70.6152 51.0073V51.3508H66.7083V50.5963H69.5382C69.5361 50.3816 69.4897 50.1909 69.3984 50.0242C69.3075 49.8548 69.1804 49.722 69.017 49.6254C68.8558 49.5283 68.6675 49.4799 68.4521 49.4799C68.2227 49.4799 68.0208 49.5357 67.8469 49.6467C67.6735 49.756 67.5376 49.9005 67.4406 50.0799C67.3454 50.2571 67.2969 50.4517 67.2947 50.6642V51.3229C67.2947 51.5989 67.3454 51.8362 67.4467 52.0339C67.5481 52.2298 67.6896 52.3804 67.8718 52.4854C68.054 52.5886 68.2668 52.6399 68.511 52.6399C68.6745 52.6399 68.8226 52.6173 68.9549 52.572C69.0873 52.5246 69.2022 52.4553 69.2992 52.3648C69.3967 52.2742 69.4701 52.1619 69.5194 52.0278L70.5685 52.1453C70.5021 52.4214 70.3762 52.6626 70.1897 52.8689C70.0057 53.0731 69.7698 53.2316 69.4823 53.3453C69.1948 53.4563 68.8658 53.512 68.4958 53.512ZM79.461 50.2527C79.461 50.9354 79.333 51.5197 79.0765 52.006C78.8218 52.4906 78.4745 52.8615 78.0336 53.1193C77.595 53.377 77.0978 53.5059 76.5411 53.5059C75.9845 53.5059 75.486 53.377 75.0456 53.1193C74.6069 52.8594 74.2596 52.4876 74.0026 52.003C73.7484 51.5167 73.6212 50.9332 73.6212 50.2527C73.6212 49.5705 73.7484 48.9871 74.0026 48.5025C74.2596 48.0162 74.6069 47.6439 75.0456 47.3862C75.486 47.1289 75.9845 47 76.5411 47C77.0978 47 77.595 47.1289 78.0336 47.3862C78.4745 47.6439 78.8218 48.0162 79.0765 48.5025C79.333 48.9871 79.461 49.5705 79.461 50.2527ZM78.3036 50.2527C78.3036 49.7725 78.2281 49.3676 78.0773 49.0376C77.9283 48.7058 77.7212 48.455 77.4565 48.2861C77.1917 48.115 76.8867 48.0297 76.5411 48.0297C76.1955 48.0297 75.8906 48.115 75.6258 48.2861C75.361 48.455 75.153 48.7058 75.0019 49.0376C74.8529 49.3676 74.7786 49.7725 74.7786 50.2527C74.7786 50.733 74.8529 51.1392 75.0019 51.4714C75.153 51.801 75.361 52.0513 75.6258 52.2224C75.8906 52.3918 76.1955 52.4762 76.5411 52.4762C76.8867 52.4762 77.1917 52.3918 77.4565 52.2224C77.7212 52.0513 77.9283 51.801 78.0773 51.4714C78.2281 51.1392 78.3036 50.733 78.3036 50.2527ZM80.2392 49.5879V48.6697H84.41V49.5879H82.8677V53.4193H81.7815V49.5879H80.2392ZM84.4899 54.7986V52.498H84.8683C84.9697 52.4196 85.0544 52.3134 85.1226 52.1793C85.1912 52.043 85.2471 51.8837 85.2904 51.6999C85.3358 51.5145 85.3729 51.3072 85.4022 51.0787C85.4311 50.8475 85.4568 50.5993 85.4795 50.3333L85.6163 48.6697H89.0605V52.498H89.7993V54.7986H88.7132V53.4193H85.5945V54.7986H84.4899ZM86.0226 52.498H87.987V49.5727H86.5906L86.5159 50.3333C86.4748 50.8362 86.4198 51.2672 86.3516 51.6259C86.2835 51.9847 86.1738 52.2751 86.0226 52.498ZM92.7476 53.512C92.2701 53.512 91.8572 53.4132 91.5099 53.2151C91.1643 53.0152 90.8986 52.7327 90.7121 52.3678C90.5259 52.0008 90.4329 51.5689 90.4329 51.0721C90.4329 50.5836 90.5259 50.1548 90.7121 49.786C90.9004 49.4151 91.1634 49.1264 91.5003 48.92C91.8376 48.7119 92.2338 48.6079 92.6891 48.6079C92.9827 48.6079 93.2597 48.6553 93.5205 48.7502C93.7831 48.843 94.0151 48.9871 94.2157 49.183C94.4184 49.3789 94.5774 49.6284 94.6937 49.9314C94.8094 50.2323 94.8671 50.591 94.8671 51.0073V51.3508H90.9607V50.5963H93.7906C93.7884 50.3816 93.7421 50.1909 93.6507 50.0242C93.5599 49.8548 93.4327 49.722 93.2693 49.6254C93.1077 49.5283 92.9194 49.4799 92.7044 49.4799C92.4746 49.4799 92.2732 49.5357 92.0993 49.6467C91.9254 49.756 91.7899 49.9005 91.6929 50.0799C91.5977 50.2571 91.5492 50.4517 91.547 50.6642V51.3229C91.547 51.5989 91.5977 51.8362 91.699 52.0339C91.8004 52.2298 91.942 52.3804 92.1242 52.4854C92.3064 52.5886 92.5191 52.6399 92.7634 52.6399C92.9268 52.6399 93.0749 52.6173 93.2073 52.572C93.3397 52.5246 93.4541 52.4553 93.5516 52.3648C93.6486 52.2742 93.7224 52.1619 93.7718 52.0278L94.8208 52.1453C94.7544 52.4214 94.6281 52.6626 94.442 52.8689C94.2581 53.0731 94.0221 53.2316 93.7346 53.3453C93.4472 53.4563 93.1181 53.512 92.7476 53.512ZM95.4889 53.4193L95.4823 52.498H95.647C95.7711 52.498 95.8755 52.4701 95.9603 52.4144C96.0451 52.3587 96.1154 52.2659 96.1713 52.1362C96.2272 52.0043 96.2705 51.8266 96.3015 51.6042C96.3325 51.3817 96.3544 51.1043 96.3666 50.7721L96.4505 48.6697H99.9262V53.4193H98.84V49.5879H97.4716L97.3969 51.1187C97.3785 51.5145 97.334 51.8576 97.2636 52.1484C97.1954 52.437 97.098 52.6752 96.9717 52.8629C96.8477 53.0501 96.6917 53.1903 96.5034 53.2834C96.3151 53.374 96.0927 53.4193 95.8362 53.4193H95.4889ZM103.136 53.512C102.671 53.512 102.267 53.4101 101.926 53.2059C101.585 53.0017 101.32 52.7161 101.132 52.3495C100.945 51.9825 100.852 51.5537 100.852 51.063C100.852 50.5723 100.945 50.1426 101.132 49.7734C101.32 49.4046 101.585 49.1181 101.926 48.9139C102.267 48.7097 102.671 48.6079 103.136 48.6079C103.602 48.6079 104.005 48.7097 104.346 48.9139C104.688 49.1181 104.952 49.4046 105.138 49.7734C105.326 50.1426 105.42 50.5723 105.42 51.063C105.42 51.5537 105.326 51.9825 105.138 52.3495C104.952 52.7161 104.688 53.0017 104.346 53.2059C104.005 53.4101 103.602 53.512 103.136 53.512ZM103.142 52.6151C103.395 52.6151 103.606 52.5463 103.775 52.4083C103.945 52.2681 104.071 52.0805 104.154 51.8454C104.239 51.6103 104.281 51.3486 104.281 51.0599C104.281 50.7691 104.239 50.5066 104.154 50.2715C104.071 50.0342 103.945 49.8457 103.775 49.7055C103.606 49.5653 103.395 49.4952 103.142 49.4952C102.884 49.4952 102.669 49.5653 102.497 49.7055C102.327 49.8457 102.2 50.0342 102.115 50.2715C102.033 50.5066 101.991 50.7691 101.991 51.0599C101.991 51.3486 102.033 51.6103 102.115 51.8454C102.2 52.0805 102.327 52.2681 102.497 52.4083C102.669 52.5463 102.884 52.6151 103.142 52.6151ZM110.355 48.6697V53.4193H109.275V48.6697H110.355ZM109.849 50.8157V51.7309C109.727 51.7844 109.589 51.8332 109.433 51.8763C109.28 51.9176 109.118 51.9503 108.946 51.9751C108.776 51.9999 108.607 52.0121 108.437 52.0121C107.8 52.0121 107.296 51.8702 106.926 51.5854C106.558 51.299 106.374 50.8527 106.374 50.2466V48.6636H107.447V50.2466C107.447 50.4508 107.484 50.6145 107.556 50.7382C107.628 50.8618 107.738 50.9528 107.885 51.0103C108.032 51.066 108.216 51.0939 108.437 51.0939C108.685 51.0939 108.921 51.0691 109.145 51.0199C109.368 50.9702 109.603 50.9023 109.849 50.8157ZM114.759 50.5806V51.4988H112.221V50.5806H114.759ZM112.568 48.6697V53.4193H111.485V48.6697H112.568ZM115.494 48.6697V53.4193H114.414V48.6697H115.494ZM117.391 50.2157H118.797C119.405 50.2157 119.876 50.3633 120.209 50.6581C120.542 50.9528 120.709 51.3394 120.712 51.8175C120.709 52.1288 120.633 52.4048 120.482 52.646C120.333 52.8872 120.116 53.0771 119.83 53.2151C119.547 53.3513 119.202 53.4193 118.797 53.4193H116.631V48.6697H117.714V52.501H118.797C119.041 52.501 119.241 52.4392 119.399 52.3151C119.556 52.1897 119.635 52.0287 119.635 51.8332C119.635 51.6268 119.556 51.4587 119.399 51.329C119.241 51.1993 119.041 51.1339 118.797 51.1339H117.391V50.2157ZM121.304 53.4193V48.6697H122.427V53.4193H121.304ZM125.696 53.512C125.218 53.512 124.805 53.4132 124.458 53.2151C124.112 53.0152 123.846 52.7327 123.66 52.3678C123.474 52.0008 123.381 51.5689 123.381 51.0721C123.381 50.5836 123.474 50.1548 123.66 49.786C123.848 49.4151 124.111 49.1264 124.449 48.92C124.785 48.7119 125.182 48.6079 125.637 48.6079C125.931 48.6079 126.208 48.6553 126.468 48.7502C126.731 48.843 126.963 48.9871 127.164 49.183C127.366 49.3789 127.526 49.6284 127.641 49.9314C127.757 50.2323 127.815 50.591 127.815 51.0073V51.3508H123.908V50.5963H126.738C126.736 50.3816 126.69 50.1909 126.599 50.0242C126.508 49.8548 126.381 49.722 126.217 49.6254C126.055 49.5283 125.868 49.4799 125.652 49.4799C125.423 49.4799 125.221 49.5357 125.047 49.6467C124.874 49.756 124.738 49.9005 124.641 50.0799C124.546 50.2571 124.497 50.4517 124.495 50.6642V51.3229C124.495 51.5989 124.546 51.8362 124.647 52.0339C124.748 52.2298 124.89 52.3804 125.072 52.4854C125.254 52.5886 125.467 52.6399 125.711 52.6399C125.875 52.6399 126.023 52.6173 126.155 52.572C126.287 52.5246 126.402 52.4553 126.499 52.3648C126.597 52.2742 126.67 52.1619 126.72 52.0278L127.769 52.1453C127.702 52.4214 127.576 52.6626 127.39 52.8689C127.206 53.0731 126.97 53.2316 126.682 53.3453C126.395 53.4563 126.066 53.512 125.696 53.512ZM130.983 47.0866H132.392L134.278 51.6751H134.353L136.239 47.0866H137.648V53.4193H136.543V49.0685H136.484L134.728 53.4005H133.902L132.146 49.0594H132.088V53.4193H130.983V47.0866ZM140.224 53.5151C139.921 53.5151 139.65 53.4615 139.408 53.3544C139.168 53.2451 138.977 53.0845 138.837 52.872C138.698 52.6595 138.629 52.3979 138.629 52.0866C138.629 51.8184 138.678 51.5968 138.778 51.4217C138.877 51.2463 139.012 51.1065 139.184 51.0012C139.356 50.8962 139.549 50.8166 139.765 50.763C139.982 50.7073 140.206 50.6672 140.438 50.6424C140.717 50.6137 140.943 50.588 141.117 50.5653C141.291 50.5405 141.417 50.5035 141.496 50.4539C141.576 50.4025 141.617 50.3228 141.617 50.2157V50.197C141.617 49.9641 141.548 49.7838 141.409 49.6563C141.271 49.5283 141.071 49.4643 140.81 49.4643C140.535 49.4643 140.317 49.5243 140.155 49.6436C139.996 49.7634 139.889 49.9044 139.833 50.0673L138.784 49.9188C138.867 49.6301 139.003 49.3889 139.194 49.1952C139.384 48.9993 139.616 48.853 139.892 48.7563C140.167 48.6571 140.471 48.6079 140.804 48.6079C141.033 48.6079 141.262 48.6344 141.49 48.6884C141.717 48.742 141.925 48.8303 142.113 48.954C142.302 49.0759 142.453 49.2418 142.567 49.4521C142.682 49.6624 142.74 49.9249 142.74 50.2405V53.4193H141.66V52.7666H141.623C141.555 52.8986 141.459 53.0226 141.334 53.138C141.213 53.2512 141.058 53.3431 140.872 53.4132C140.688 53.4811 140.472 53.5151 140.224 53.5151ZM140.515 52.6926C140.741 52.6926 140.936 52.6482 141.102 52.5598C141.267 52.4688 141.395 52.3495 141.483 52.2011C141.575 52.0526 141.62 51.8906 141.62 51.7156V51.1557C141.585 51.1845 141.525 51.2114 141.44 51.2363C141.357 51.2611 141.264 51.2824 141.161 51.3011C141.057 51.3199 140.955 51.336 140.853 51.3508C140.752 51.3651 140.664 51.3773 140.59 51.3878C140.422 51.4104 140.272 51.4474 140.14 51.4988C140.008 51.5506 139.903 51.6229 139.827 51.7156C139.75 51.8062 139.712 51.9237 139.712 52.0678C139.712 52.2742 139.787 52.4296 139.938 52.535C140.089 52.6399 140.281 52.6926 140.515 52.6926ZM143.336 49.5879V48.6697H147.507V49.5879H145.964V53.4193H144.878V49.5879H143.336ZM150.315 53.512C149.837 53.512 149.424 53.4132 149.077 53.2151C148.731 53.0152 148.465 52.7327 148.279 52.3678C148.093 52.0008 148 51.5689 148 51.0721C148 50.5836 148.093 50.1548 148.279 49.786C148.468 49.4151 148.73 49.1264 149.067 48.92C149.405 48.7119 149.801 48.6079 150.256 48.6079C150.55 48.6079 150.827 48.6553 151.088 48.7502C151.35 48.843 151.582 48.9871 151.783 49.183C151.986 49.3789 152.145 49.6284 152.26 49.9314C152.377 50.2323 152.434 50.591 152.434 51.0073V51.3508H148.527V50.5963H151.358C151.356 50.3816 151.309 50.1909 151.218 50.0242C151.127 49.8548 151 49.722 150.836 49.6254C150.675 49.5283 150.487 49.4799 150.272 49.4799C150.042 49.4799 149.84 49.5357 149.666 49.6467C149.493 49.756 149.357 49.9005 149.26 50.0799C149.165 50.2571 149.116 50.4517 149.114 50.6642V51.3229C149.114 51.5989 149.165 51.8362 149.266 52.0339C149.368 52.2298 149.509 52.3804 149.691 52.4854C149.873 52.5886 150.086 52.6399 150.331 52.6399C150.494 52.6399 150.642 52.6173 150.774 52.572C150.906 52.5246 151.021 52.4553 151.119 52.3648C151.216 52.2742 151.289 52.1619 151.339 52.0278L152.388 52.1453C152.322 52.4214 152.195 52.6626 152.009 52.8689C151.825 53.0731 151.589 53.2316 151.302 53.3453C151.014 53.4563 150.685 53.512 150.315 53.512ZM153.385 55.2004V48.6697H154.49V49.4551H154.555C154.612 49.3397 154.694 49.217 154.8 49.0872C154.905 48.9553 155.048 48.843 155.228 48.7502C155.408 48.6553 155.637 48.6079 155.917 48.6079C156.285 48.6079 156.617 48.7015 156.913 48.8891C157.211 49.0746 157.447 49.3498 157.62 49.7146C157.796 50.0777 157.884 50.5231 157.884 51.0508C157.884 51.5724 157.798 52.0156 157.627 52.3804C157.455 52.7453 157.221 53.0235 156.925 53.2151C156.63 53.4071 156.294 53.5029 155.92 53.5029C155.647 53.5029 155.42 53.4576 155.24 53.3666C155.06 53.276 154.916 53.1667 154.806 53.0387C154.698 52.909 154.615 52.7862 154.555 52.6708H154.508V55.2004H153.385ZM154.486 51.0443C154.486 51.3516 154.53 51.6207 154.617 51.8515C154.705 52.0822 154.833 52.2629 154.998 52.3926C155.166 52.5206 155.369 52.5842 155.606 52.5842C155.855 52.5842 156.062 52.5185 156.23 52.3865C156.398 52.2524 156.524 52.07 156.609 51.8393C156.696 51.6063 156.739 51.3412 156.739 51.0443C156.739 50.7495 156.697 50.4878 156.612 50.2588C156.527 50.0303 156.401 49.8509 156.233 49.7211C156.066 49.591 155.857 49.5261 155.606 49.5261C155.366 49.5261 155.163 49.5892 154.995 49.7146C154.828 49.8404 154.701 50.0168 154.614 50.2436C154.529 50.4704 154.486 50.7373 154.486 51.0443ZM159.929 51.9041L161.838 48.6697H162.992V53.4193H161.906V50.1818L160.003 53.4193H158.846V48.6697H159.929V51.9041ZM165.517 53.5151C165.215 53.5151 164.943 53.4615 164.701 53.3544C164.461 53.2451 164.271 53.0845 164.13 52.872C163.991 52.6595 163.922 52.3979 163.922 52.0866C163.922 51.8184 163.971 51.5968 164.071 51.4217C164.17 51.2463 164.306 51.1065 164.477 51.0012C164.649 50.8962 164.843 50.8166 165.058 50.763C165.275 50.7073 165.499 50.6672 165.731 50.6424C166.011 50.6137 166.237 50.588 166.411 50.5653C166.584 50.5405 166.711 50.5035 166.789 50.4539C166.87 50.4025 166.91 50.3228 166.91 50.2157V50.197C166.91 49.9641 166.841 49.7838 166.702 49.6563C166.564 49.5283 166.364 49.4643 166.104 49.4643C165.828 49.4643 165.61 49.5243 165.449 49.6436C165.289 49.7634 165.182 49.9044 165.126 50.0673L164.077 49.9188C164.16 49.6301 164.297 49.3889 164.487 49.1952C164.677 48.9993 164.91 48.853 165.185 48.7563C165.46 48.6571 165.764 48.6079 166.097 48.6079C166.327 48.6079 166.555 48.6344 166.783 48.6884C167.011 48.742 167.219 48.8303 167.407 48.954C167.595 49.0759 167.746 49.2418 167.86 49.4521C167.976 49.6624 168.033 49.9249 168.033 50.2405V53.4193H166.954V52.7666H166.916C166.848 52.8986 166.752 53.0226 166.628 53.138C166.506 53.2512 166.352 53.3431 166.166 53.4132C165.981 53.4811 165.765 53.5151 165.517 53.5151ZM165.809 52.6926C166.034 52.6926 166.229 52.6482 166.395 52.5598C166.561 52.4688 166.688 52.3495 166.777 52.2011C166.868 52.0526 166.913 51.8906 166.913 51.7156V51.1557C166.878 51.1845 166.818 51.2114 166.733 51.2363C166.651 51.2611 166.558 51.2824 166.454 51.3011C166.351 51.3199 166.248 51.336 166.147 51.3508C166.046 51.3651 165.958 51.3773 165.883 51.3878C165.716 51.4104 165.566 51.4474 165.433 51.4988C165.301 51.5506 165.196 51.6229 165.12 51.7156C165.043 51.8062 165.005 51.9237 165.005 52.0678C165.005 52.2742 165.08 52.4296 165.232 52.535C165.383 52.6399 165.575 52.6926 165.809 52.6926ZM168.834 53.4193L168.828 52.498H168.993C169.117 52.498 169.221 52.4701 169.306 52.4144C169.391 52.3587 169.461 52.2659 169.517 52.1362C169.573 52.0043 169.616 51.8266 169.647 51.6042C169.678 51.3817 169.7 51.1043 169.713 50.7721L169.796 48.6697H173.272V53.4193H172.186V49.5879H170.817L170.743 51.1187C170.724 51.5145 170.679 51.8576 170.609 52.1484C170.541 52.437 170.444 52.6752 170.318 52.8629C170.193 53.0501 170.037 53.1903 169.849 53.2834C169.661 53.374 169.438 53.4193 169.182 53.4193H168.834ZM175.163 50.2157H176.569C177.177 50.2157 177.647 50.3633 177.981 50.6581C178.314 50.9528 178.481 51.3394 178.483 51.8175C178.481 52.1288 178.405 52.4048 178.254 52.646C178.105 52.8872 177.888 53.0771 177.602 53.2151C177.318 53.3513 176.974 53.4193 176.569 53.4193H174.403V48.6697H175.486V52.501H176.569C176.813 52.501 177.013 52.4392 177.171 52.3151C177.328 52.1897 177.407 52.0287 177.407 51.8332C177.407 51.6268 177.328 51.4587 177.171 51.329C177.013 51.1993 176.813 51.1339 176.569 51.1339H175.163V50.2157ZM179.076 53.4193V48.6697H180.199V53.4193H179.076Z" fill="white"/>
</svg>
